# xmcd
#
# Track frame offsets: 
#        150
#        16141
#        26364
#        42232
#        65965
#        87560
#        103408
#        125395
#        135211
#        158112
#        173686
#        184258
#        198844
#
# Disc length: 2929 seconds
#
# Revision: 0
# Processed by: cddbd v1.5.1PL0 Copyright (c) Steve Scherf et al.
# Submitted via: ExactAudioCopy v0.95a5
#
DISCID=aa0b6f0d
DTITLE=Alexandru Andries - in concert Teatrul Excelsior Bucuresti
DYEAR=1997
DGENRE=Blues
TTITLE0=Fata in fata
TTITLE1=Da, da, da...
TTITLE2=Miruna
TTITLE3=Stele(doar stele)
TTITLE4=Zori de zi
TTITLE5=Tu, si biblioteca mea
TTITLE6=Doar pana miine stai
TTITLE7=Mamica mea zboara
TTITLE8=Vraji fara nume
TTITLE9=Pasare de noapte
TTITLE10=Vizita scurta
TTITLE11=Lumina
TTITLE12=Pe curand !!!
EXTD=
EXTT0=
EXTT1=
EXTT2=
EXTT3=
EXTT4=
EXTT5=
EXTT6=
EXTT7=
EXTT8=
EXTT9=
EXTT10=
EXTT11=
EXTT12=
PLAYORDER=
